<?xml version="1.0" encoding="utf-8"?>
<!-- Generator: Adobe Illustrator 25.4.1, SVG Export Plug-In . SVG Version: 6.00 Build 0)  -->
<svg version="1.1" id="Capa_1" xmlns="http://www.w3.org/2000/svg" xmlns:xlink="http://www.w3.org/1999/xlink" x="0px" y="0px"
	 viewBox="0 0 761.4 353.9" style="enable-background:new 0 0 761.4 353.9;" xml:space="preserve">
<style type="text/css">
	.st0{fill:#FCE5EB;}
	.st1{fill:#E85B76;}
	.st2{fill:#7CC6DA;}
	.st3{fill:#FAD6E0;}
</style>
<g>
	<path id="XMLID_00000000197387570509444190000008047622322765330052_" class="st0" d="M65.8,127.4c4.7,37.3-37.9,82.2-44.7,108.3
		c-6.2,23.9,6.9,58.2,24.8,79.9c17.9,21.7,51.8,30.9,75.5,15.8c10.3-6.6,17.8-16.9,28-23.6c32.6-21.6,76.5,0,115.2-5.9
		c44.6-6.8,75.4-49.6,88.5-92.8c8.3-27.4,11.5-57.8,0.6-84.3c-10.9-26.5-38.9-47.3-67.3-42.8c-25.5,4.1-52,26.5-73.7,12.6
		c-15.2-9.7-16.4-31.2-25.1-47c-13.6-24.8-47.4-34-74.1-24.4c-26.6,9.6-47.2,23.4-50.7,51.5C61.1,87.7,64.2,114.3,65.8,127.4z"/>
	<g>
		<path class="st1" d="M116.8,256.6c-2-8.9-6.5-21.9-5.5-22.1c49.9-12.2,108.8-21.9,151-22.1c1.8,9.1-0.4,21.8-2.2,22
			c-17.7,2.6-37.3,4.9-54.9,7.5c-22.1,3.3-44.2,6.9-66.2,10.5C131.6,253.6,124.4,255.1,116.8,256.6z"/>
		<path class="st2" d="M252.1,139.3c-1.3,0.8-2.4,2.1-3.8,2.4c-19.1,3.5-38.2,7.2-57.4,10.3c-24.4,4-49,7.4-73.5,11.2
			c-4.9,0.8-9.7,2.2-14.6,3.2c-1,0.2-3,0-3.1-0.4c-0.3-1.2-0.4-3.1,0.3-3.8c1.8-1.6,4-3.2,6.2-3.8c22.3-5.5,44.5-11.4,67-16
			c15.9-3.3,32.1-5.2,48.2-6.9c8.3-0.9,16.7-0.3,25.1-0.1c1.9,0,3.7,1.4,5.6,2.1C252.1,138.1,252.1,138.7,252.1,139.3z"/>
		<path class="st1" d="M104.4,197.3c-3.4-4.8-0.9-8.1,1.1-10.9c6.1-8.2,14.8-10.8,24.7-6.5c6.2,2.7,10.5,0.7,15-3.2
			c3.3-2.9,6.9-5.7,10.8-7.7c6-3,11.9-2.4,17.8,1.3c10.5,6.5,11.6,6.2,21.2-1.7c2.9-2.4,6.1-4.5,9.4-6.1c7.4-3.6,12.7-2.9,18.3,3.2
			c3.7,4,7.4,3.8,11.4,1.5c3.7-2.1,7.2-4.7,10.9-6.8c4.1-2.3,8.1-1.4,11.2,1.9c1,1.1,0.9,3.3,1.3,5c-1.7,0.2-3.9,1.2-4.9,0.4
			c-4.5-3.3-7.8-1.4-11.4,1.5c-2.5,2-5.2,3.9-8.1,5.1c-6.2,2.5-12,1.8-16.4-3.7c-3.4-4.2-7.2-4.2-11.3-1.6c-2.4,1.5-4.7,3.3-6.8,5.2
			c-9.6,8.5-17.9,9.3-28.7,2.6c-7.5-4.6-13-4-19.1,2.2c-7.2,7.4-15.2,11.4-25.9,7.2c-7.3-2.9-12-0.7-16.6,5.7
			C107.2,193.4,106.1,195,104.4,197.3z"/>
		<g>
			<g>
				<path class="st1" d="M231.2,160.4c0.4,1-0.4,2.1-1.5,2c-1.5-0.2-2.6-0.3-3.1-0.9c-1.3-1.4-2.1-3.6-2.3-5.5
					c-0.1-0.5,0.7-1.2,1.5-1.8c0.6-0.5,1.5-0.4,2,0.2c0.7,0.9,1.5,1.8,2.1,2.8C230.3,158,230.7,159,231.2,160.4z"/>
				<path class="st1" d="M137.1,174.7c0.4,0.9-0.1,1.9-1.1,2.1c-4.4,0.7-5.5-1.8-5.4-4.7c0-0.9,0.8-1.8,1.7-2.6
					c0.7-0.7,1.9-0.5,2.3,0.4C135.4,171.4,136.2,173,137.1,174.7z"/>
				<path class="st1" d="M180,163.4c-0.7-0.7-0.5-1.8,0.3-2.3c1.2-0.6,2.2-1.2,2.6-0.9c1.6,1.2,2.9,3.1,3.8,4.9
					c0.2,0.3-0.4,1-1.1,1.7c-0.5,0.6-1.5,0.6-2.1,0.1C182.6,166,181.5,164.9,180,163.4z"/>
				<path class="st1" d="M106.1,177.9c-1.2,1.5-2.1,2.5-2.7,3.3c-0.5,0.6-1.5,0.7-2.1,0.1c-0.8-0.8-1.7-1.5-1.5-2.1
					c0.3-1.6,1.5-3.5,2.9-4.3c0.6-0.3,1.7,0.2,3,0.8C106.5,176.1,106.7,177.2,106.1,177.9z"/>
				<path class="st1" d="M255.5,156c-0.6,0.8-1.9,0.7-2.4-0.2c-0.8-1.5-1.4-2.6-1.6-3.8c-0.1-0.4,0.5-1,1.2-1.5
					c0.7-0.6,1.6-0.4,2.1,0.3c0.7,1.1,1.4,2.1,1.8,3.3C256.6,154.5,256.2,155.1,255.5,156z"/>
			</g>
		</g>
		<g>
			<g>
				<path class="st3" d="M176.4,238.8c-7.2,1.2-12.9,2.1-19,3.1c0.5-4.9,2.5-8.3,6.7-10.1C170.4,229,171.5,235.4,176.4,238.8z"/>
				<path class="st3" d="M137.6,235.1c5.5-0.8,10.2-1.4,14.9-2.1c0.4,0.3,0.9,0.6,1.3,1c-2,2.6-3.5,6.3-6.1,7.5
					C142.6,243.9,140.4,239.3,137.6,235.1z"/>
				<path class="st3" d="M138,245.3c-5.1,1.4-9.4,2.5-14,3.7c-1-4.4,1.1-7.3,4.6-8.9C133.5,237.9,134.6,242.9,138,245.3z"/>
				<path class="st3" d="M207.1,222.6c4.2-0.8,8.3-1.5,12.5-2.3c0.4,0.5,0.8,0.9,1.1,1.4c-1.9,2.2-3.6,5.7-5.9,6.1
					c-2.5,0.5-5.5-1.9-8.3-3C206.8,224.1,207,223.4,207.1,222.6z"/>
				<path class="st3" d="M207.4,233.6c-4.6,0.7-9.3,1.3-13.9,2c-0.3-0.3-0.6-0.7-1-1c2.2-2.2,4.1-5.9,6.6-6.3
					c2.7-0.4,5.9,2.2,8.8,3.5C207.7,232.4,207.5,233,207.4,233.6z"/>
				<path class="st3" d="M238.3,219.1c4.7,0,9.1-0.1,13.5-0.1c0.3,0.4,0.6,0.8,1,1.2c-2.2,1.8-4.1,4.6-6.6,5.1
					C242.5,226.1,239.6,223.6,238.3,219.1z"/>
				<path class="st3" d="M190.5,227.4c-2.1,2.1-4,5.3-6.5,6c-1.7,0.5-4.5-2.2-6.8-3.5c0.2-0.6,0.4-1.3,0.6-1.9
					c3.8-0.7,7.7-1.4,11.5-2.1C189.7,226.4,190.1,226.9,190.5,227.4z"/>
				<path class="st3" d="M224.4,230.4c3.4-8,5.2-8.2,11.9-0.8C232,229.9,228.2,230.1,224.4,230.4z"/>
			</g>
		</g>
		<path class="st2" d="M246.5,182.4c-29.1,0.4-57.8,3.8-86.3,9.5c-17.1,3.4-55,13-55.6,13.4c1.7,6.4,4,12,5.7,17.8
			c2.5-0.4,46.1-8,62.9-10.6c17.4-2.7,34.8-5.4,52.3-7.7c9-1.2,21.4-1.7,30.5-2.6c1.1-3.3,2.5-8.8,4-18.8
			C255.3,183,250.9,182.3,246.5,182.4z M121.5,215.9c-1.7,0.1-3.2,0.1-5,0.2c-0.4-2.7-0.7-5.3-1.2-8.5c2.2-0.1,3.9-0.2,5.8-0.3
			C121.2,210.3,121.3,212.9,121.5,215.9z M133.4,214.1c-1.7,0.1-3.2,0.1-5,0.2c-0.4-2.7-0.7-5.3-1.2-8.5c2.2-0.1,3.9-0.2,5.8-0.3
			C133.1,208.5,133.2,211.1,133.4,214.1z M140.4,211.4c-0.4-3-0.7-5.7-1.1-8.8c2.3-0.1,3.6-0.2,5-0.2c0.4,2.8,0.8,5.3,1.3,8.2
			C144.1,210.8,142.6,211,140.4,211.4z M156.9,207.8c-5,1.1-5.3,0.5-5.2-7.6c1.3-0.1,2.6-0.3,4-0.4c0.5,2.6,1,4.8,1.4,7.1
			C157.2,207.1,157,207.5,156.9,207.8z M168.8,205.7c-5,1.1-5.3,0.5-5.2-7.6c1.3-0.1,2.6-0.3,4-0.4c0.5,2.6,1,4.8,1.4,7.1
			C169,205,168.9,205.3,168.8,205.7z M175.3,196.2c1.4-0.2,2.9-0.3,4.7-0.6c0.5,2.8,0.9,5.3,1.4,8.2
			C175,205.2,174.8,204.9,175.3,196.2z M187.1,193.9c1.4-0.2,2.9-0.3,4.7-0.6c0.5,2.8,0.9,5.3,1.4,8.2
			C186.8,202.9,186.6,202.7,187.1,193.9z M201.9,200.6c-1.3-2.2-2.1-4.6-3.5-8c2.5,0.4,4.8,0.2,5.1,1c1,2.2,1.2,4.7,1.7,7
			C204,200.6,202.2,201,201.9,200.6z M211,192c4-0.7,4-0.7,5.7,6.9C210.2,199.9,211.6,195.3,211,192z M222.9,189.8
			c4-0.7,4-0.7,5.7,6.9C222,197.7,223.4,193.1,222.9,189.8z M234.9,188.6c4-0.7,4-0.7,5.7,6.9C234,196.5,235.4,191.9,234.9,188.6z
			 M251.8,194.8c0.1,0.7-0.5,1.8-1.1,2c-0.6,0.2-2.1-0.4-2.1-0.8c-0.3-2.9-0.3-5.8-0.5-8.8c0.8,0,1.6,0,2.4-0.1
			C251.1,189.7,251.6,192.2,251.8,194.8z"/>
		<path class="st1" d="M172,127.5c-0.8-3.5-0.9-6.7,0.1-9.8c0.7-2.2,1.8-4.4,2.8-6.5c0.4-0.8,1.2-0.6,1.9-0.6c0.1,0,0.3,0.5,0.3,0.7
			c0,0.2-0.3,0.5-0.5,0.6c-3.2,2.4-4,5.9-4.2,9.5c-0.1,1.8,0.2,3.7,0.3,5.8c0.6-0.4,0.9-0.6,1.2-0.8c1.6-1,3.3-1.1,5-0.3
			c1.7,0.8,1.9,2.5,1.7,4.1c-0.3,2.4-0.7,4.8-1.8,7c-0.8,1.8-3.4,3.1-5.4,2.8c-0.8-0.1-1.6-0.2-2.3-0.4c-4.4-1.1-6.8-5.4-6.7-9.2
			c0.1-2.8,1.6-4.4,4.6-3.8C170,126.9,170.8,127.2,172,127.5z"/>
	</g>
	<g>
		<g>
			<g>
				<path class="st1" d="M301.7,177.2c0.5-1.5,1.4-2.9,2.5-4.2c4.2,1.8,7.8,3.2,10.9,4.2c3.1,1,6.3,1.5,9.6,1.5
					c0.6,0,1.2-0.1,1.9-0.2c0.6-0.1,1.3-0.3,1.5-0.5c0.2-0.2,0.3-0.7,0.3-1.2c0.1-0.5,0.1-0.9,0.1-1.2c0-1.4-0.7-2.6-2-3.6
					c-1.3-1-3.1-2-5.3-3c-0.6-0.3-0.9-0.4-1.5-0.7c-4.3-2.2-7.7-4.2-10.3-5.9c-2.6-1.8-4.8-4.1-6.6-7c-1.8-2.9-2.7-6.4-2.7-10.6
					c0-6.1,1.7-11,5.1-14.7c3.4-3.7,8.9-5.5,16.3-5.5c6.4,0,12.2,0,15.1,1.2c1.4,0.5,2.9,1.9,4.1,2.9c1.2,1,2.3,2.2,3.3,3.6
					c0,2-0.2,4.2-0.6,6.5c-0.4,2.3-0.9,4.5-1.6,6.4s-1.4,3.3-2.2,4.2c-0.7,0.3-1.4,0.6-2.2,0.7c-0.8,0.2-1.8,0.2-3,0.2
					c-1.2,0-2.2-0.1-3-0.3s-1.5-0.5-2.1-0.9c-0.5-3.6-0.8-5.3-1.3-8.9c-1.7-0.5-3.4-0.8-5.3-1c-1.9-0.2-3.1-0.3-3.8-0.3
					c-1.1,0.5-1.8,1.2-2.2,2c-0.4,0.9-0.6,1.9-0.6,3.1c0,1.3,0.4,2.4,1.1,3.3c0.7,0.9,1.6,1.7,2.6,2.3c1,0.6,2.3,1.3,3.9,2
					c0.8,0.4,1.1,0.6,1.9,0.9c4.1,2.1,7.3,4,9.7,5.6c2.3,1.6,4.3,3.6,5.9,6.1c1.6,2.4,2.4,5.4,2.4,8.9c0,4-1.1,7.5-3.2,10.4
					c-2.1,2.9-4.8,5-8.2,6.3c-1.8,0.7-3.8,1.2-6,1.5c-2.2,0.3-4.7,0.5-7.6,0.5c-1.9,0-4-0.2-6.3-0.7c-2.2-0.5-4.4-1.3-6.5-2.6
					c-2.1-1.2-3.8-2.9-5-4.9c-0.1-0.5-0.2-1.2-0.2-2C300.9,180.2,301.2,178.7,301.7,177.2z"/>
				<path class="st1" d="M347.9,156.5c-0.9-2.5-1.8-6-1.3-8.7c0.3-1.9,2-3.9,3.8-5.4c1.8-1.5,4-2.2,6.7-2.2c1.7,0,3.2,0.4,4.5,1.1
					c1.3,0.7,2.4,1.8,3.4,3.2c1.6,2.2,2.8,5.3,3.6,9.3c0.7,3.5,1.4,7.5,1.9,12.1c0.5,4.6,0.7,9,0.7,13.1c0.7,0,1,0,1.7,0
					c1.2-3.9,2.1-7.7,2.8-11.2c0.7-3.6,1.2-7.8,1.6-12.7c-2-0.4-3-0.6-5.1-1c-0.4-1.6-0.7-2.9-0.9-4c-0.2-1.1-0.3-2.4-0.3-3.6
					c0-0.7,0.6-1.6,1.7-2.6c1.1-1,2.6-1.8,4.4-2.4c1.8-0.7,3.7-1,5.6-1c7.4,0,11,3.7,11,11.2c0,2.4-0.5,5-1.5,7.8
					c1.7,5.7,2.9,12.2,3.7,19.7c0.3,0,0.5,0,0.8,0c1.2-2.7,2.2-6.4,3.2-11.1c1-4.7,1.4-9,1.4-13c-1.7-0.3-2.5-0.5-4.2-0.8
					c-0.4-1.6-0.7-2.9-0.9-4s-0.3-2.4-0.3-3.6c0-0.7,0.5-1.6,1.5-2.6c1-1,2.4-1.8,4.1-2.5c1.7-0.7,3.5-1,5.4-1
					c7.5,0,11.3,3.9,11.3,11.8c0,4.8-0.9,9.9-2.7,15.1c-1.8,5.2-4,10-6.6,14.2c-2.6,4.3-5,7.6-7.3,10c-1.4,0.4-3,0.6-4.6,0.6
					c-2,0-3.9-0.3-5.7-0.8c-1.8-0.5-3.3-1.3-4.5-2.3c-0.2-0.7-0.6-2.6-1.1-5.6c-0.7-4.3-1.3-7.4-1.7-9.4c-0.3,0-0.5,0-0.9,0
					c-1.6,6.8-3.9,12.6-7,17.2c-1.6,0.6-3.6,0.9-6.1,0.9c-2.1,0-4.1-0.2-6-0.7c-1.9-0.4-3.9-1.2-4.2-1.9c-0.8-1.5-1.1-6.2-2.2-10.7
					c-1.1-4.5-2.3-8.8-3.7-12.9c-1.3-4.1-2.5-7-3.5-8.7C349.6,156.8,349.1,156.7,347.9,156.5z"/>
				<path class="st1" d="M425.1,152.8c1.7-3.9,4.2-7,7.7-9.2c3.5-2.3,7.8-3.4,13-3.4c2.7,0,5.4,0.3,8.2,1c2.7,0.6,5,1.7,6.9,3.2
					c1.7,1.4,3,3.3,3.8,5.6c0.8,2.3,1.2,4.9,1.2,7.7c0,1.9-0.2,3.8-0.5,5.7c-0.3,0.6-1,1.3-2,2.3c-1,0.9-2.2,1.8-3.5,2.7
					s-2.8,1.8-3.9,2.1c-1,0.2-2.4,0.1-3.7,0.1c-2.3,0-4.5-0.1-6.9-0.3c-2.3-0.2-4.3-0.4-6.1-0.7c0.2,2.4,1,4.5,2.2,6.3
					c1.3,1.8,3.3,2.7,6,2.7c0.3,0,0.7,0,1.2,0c1.7-0.1,3.8-0.6,6.1-1.4c2.3-0.8,4.7-1.7,7-2.7c1.1,1.1,1.9,2.2,2.4,3.3
					c0.5,1.1,0.9,2.6,1.1,4.7c-0.9,1-2.3,2.3-4.3,3.8c-2,1.5-4.4,2.8-7.3,4c-2.9,1.2-5.9,1.8-9,1.8c-4.7,0-8.7-1.1-12-3.4
					c-3.3-2.3-5.9-5.4-7.6-9.3c-1.7-3.9-2.6-8.3-2.6-13.1C422.6,161.1,423.5,156.7,425.1,152.8z M450.3,156.2c-0.4-0.4-1.1-0.8-2-1
					c-0.9-0.2-1.9-0.4-3-0.4c-0.8,0-1.7,0.1-2.5,0.2c-0.8,0.1-1.4,0.3-1.5,0.5c-1,1.9-1.6,4.1-1.8,6.5c4.6-0.4,6.9-0.7,11.5-1.1
					C450.6,159,450.5,158.1,450.3,156.2z"/>
				<path class="st1" d="M474,152.8c1.7-3.9,4.2-7,7.7-9.2c3.5-2.3,7.8-3.4,13-3.4c2.7,0,5.4,0.3,8.2,1c2.7,0.6,5,1.7,6.9,3.2
					c1.7,1.4,3,3.3,3.8,5.6c0.8,2.3,1.2,4.9,1.2,7.7c0,1.9-0.2,3.8-0.5,5.7c-0.3,0.6-1,1.3-2,2.3c-1,0.9-2.2,1.8-3.5,2.7
					s-2.8,1.8-3.9,2.1c-1,0.2-2.4,0.1-3.7,0.1c-2.3,0-4.5-0.1-6.9-0.3c-2.3-0.2-4.3-0.4-6.1-0.7c0.2,2.4,1,4.5,2.2,6.3
					c1.3,1.8,3.3,2.7,6,2.7c0.3,0,0.7,0,1.2,0c1.7-0.1,3.8-0.6,6.1-1.4c2.3-0.8,4.7-1.7,7-2.7c1.1,1.1,1.9,2.2,2.4,3.3
					c0.5,1.1,0.9,2.6,1.1,4.7c-0.9,1-2.3,2.3-4.3,3.8c-2,1.5-4.4,2.8-7.3,4c-2.9,1.2-5.9,1.8-9,1.8c-4.7,0-8.7-1.1-12-3.4
					c-3.3-2.3-5.9-5.4-7.6-9.3c-1.7-3.9-2.6-8.3-2.6-13.1C471.5,161.1,472.3,156.7,474,152.8z M499.1,156.2c-0.4-0.4-1.1-0.8-2-1
					c-0.9-0.2-1.9-0.4-3-0.4c-0.8,0-1.7,0.1-2.5,0.2c-0.8,0.1-1.4,0.3-1.5,0.5c-1,1.9-1.6,4.1-1.8,6.5c4.6-0.4,6.9-0.7,11.5-1.1
					C499.5,159,499.4,158.1,499.1,156.2z"/>
				<path class="st1" d="M524.1,154.6c-1.9-0.3-2.8-0.5-4.7-0.8c-0.4-1.4-0.6-2.7-0.8-3.8c-0.1-1.1-0.2-2.2-0.2-3.5
					c0-0.3,0.1-0.5,0.1-0.9c0.1-0.4,0.1-0.7,0.1-1c2.5-0.5,3.7-0.8,6.2-1.4c0.1-1.8,0.5-3.8,1-6c0.5-2.2,1-4.2,1.6-4.9
					c0.6-0.7,2-1.2,3.3-1.5c1.3-0.3,2.7-0.5,4.2-0.5c1.3,0,2.5,0.1,3.7,0.4c1.2,0.2,2.2,0.6,3.1,1c0.1,1,0.1,2.1,0.1,3.3
					c0,2.1-0.1,4.4-0.3,7c3-0.5,4.5-0.8,7.6-1.4c1.1,1.8,1.6,3.8,1.6,6c0,1.5-0.2,2.8-0.5,4.1c-0.4,1.2-0.8,3.6-1.5,4.1
					c-0.8,0.6-4.5,0.5-7.8,0.5c-0.4,4.7-1.3,11.5-2.7,20.6c-0.1,0.6-0.1,0.9-0.2,1.5c0,0,0.1,0.1,0.1,0.1c4-1.3,6.1-1.9,10.1-3.1
					c2.1,1.7,3.4,4.4,3.8,8.1c0,0.2-0.9,1.1-2.8,2.8c-1.8,1.7-4.2,3.2-6.9,4.6c-2.8,1.4-5.8,2.1-9.1,2.1c-5.7,0-8.7-3.5-9.1-10.4
					c-0.2-3.5-0.3-8.2-0.3-14.1C523.9,162.7,524,158.4,524.1,154.6z"/>
				<path class="st2" d="M557.2,152.8c1.7-3.9,4.2-7,7.7-9.2c3.5-2.3,7.8-3.4,13-3.4c1.8,0,3.8,0.1,6.1,0.3c2.3,0.2,4.5,0.5,6.6,1
					c0.3,0.2,0.5,0.4,0.9,0.6c1.3,0.9,2.2,1.6,2.9,2.1c0.6,0.5,1.3,1.3,2,2.2c0,1.5-0.2,3.7-0.6,6.4c-0.4,2.7-0.9,5.2-1.6,7.5
					c-0.6,2.3-1.2,4-1.8,4.5c-0.7,0.5-2.5,0.7-4.6,0.7c-1,0-2-0.1-2.9-0.2c-0.9-0.2-1.6-0.4-2-0.6c-0.4-3.2-0.5-4.8-0.9-7.9
					c-0.4-0.5-1.4-0.9-2.9-1.2c-1.5-0.3-2.9-0.5-4.2-0.5c-0.4,0-0.8,0-1.1,0.1c-0.7,1.3-1.2,3.1-1.5,5.1c-0.3,2.1-0.5,4.2-0.5,6.4
					c0,3.1,0.5,5.8,1.5,8c1,2.2,3.1,3.3,6.3,3.3c1.6,0,3.1-0.3,4.7-0.8c1.5-0.5,3.5-1.3,5.8-2.4c1-0.5,1.7-0.8,2.2-1
					c1.1,1.1,2,2.3,2.7,3.6c0.7,1.3,1.1,2.9,1.3,4.8c-1.8,2.1-4.4,4.3-7.7,6.4c-3.3,2.1-7.2,3.2-11.6,3.2c-4.7,0-8.7-1.1-12-3.4
					c-3.3-2.3-5.9-5.4-7.6-9.3c-1.7-3.9-2.6-8.3-2.6-13.1C554.7,161.1,555.5,156.7,557.2,152.8z"/>
				<path class="st2" d="M620.9,163.2c2,0.3,3.9,0.8,5.6,1.2c0-0.5,0-0.8,0-1.3c0-0.9,0-1.9-0.1-3c0-1.1-0.1-1.8-0.2-2.1
					c-0.3-0.5-1-1-2.2-1.5c-1.2-0.5-3.2-0.8-5.9-0.8c-1.7,0-3.4,0.2-5.2,0.6c-1.8,0.4-3.8,1-5.9,1.7c-1.2-1.9-2.1-3.8-2.8-5.6
					c-0.7-1.8-1.1-3.5-1.1-5.3c0-0.5,0-1.1,0.1-1.6c4.6-3.6,10.6-5.4,18-5.4c4.1,0,7.7,0.5,10.8,1.4c3.1,0.9,5.7,2.7,7.8,5.3
					c2,2.6,3,6.4,3,11.2c0,4.7-0.6,9.3-1.7,13.7c-1.1,4.4-1.7,6.7-1.7,6.8c2.5-1.1,3.7-1.6,6.2-2.7c0.8,0.9,1.6,2,2.2,3.2
					c0.6,1.3,1.1,2.7,1.2,4.4c-0.4,0.9-1.3,2-2.6,3.3c-1.3,1.3-3,2.5-4.9,3.5c-1.9,1-4,1.5-6.1,1.5c-2.4,0-4.2-0.7-5.4-2.1
					c-1.2-1.4-1.8-3.2-1.8-5.4c0-1.3,0.2-2.5,0.6-3.8c-0.5-0.2-0.8-0.2-1.3-0.4c-0.8,4.5-2.5,7.6-5.1,9.3c-2.6,1.7-5.5,2.5-8.6,2.5
					c-2.1,0-4-0.6-6-1.7c-1.9-1.2-3.5-2.8-4.7-5.1c-1.2-2.2-1.8-4.8-1.8-7.8c0-4.7,1.2-8.4,3.6-10.8c2.4-2.5,5.8-3.7,10.3-3.7
					C616.9,162.7,618.8,162.9,620.9,163.2z M622.7,177.9c1-0.7,1.9-1.4,2.6-2.4c0.8-0.9,1.2-1.8,1.4-2.6c-0.1-0.4-0.2-0.6-0.3-1
					c-1.5-0.2-3.1-0.3-4.8-0.3c-1.5,0-2.5,0.1-3,0.3c-0.9,1-1.4,2.2-1.4,3.4c0,0.9,0.2,1.7,0.7,2.5c0.5,0.7,1.3,1.3,2.2,1.2
					C620.8,179,621.7,178.5,622.7,177.9z"/>
				<path class="st2" d="M654.5,135.7c-1.9-0.3-2.9-0.5-4.8-0.9c-0.7-2.6-1.7-6.6-1-8.5c0.2-0.4,1.2-1.2,2.4-2
					c1.2-0.8,2.5-1.5,4.1-2.1s3.1-0.9,4.7-0.9c3.8,0,6.8,0.8,8.9,2.5c2.1,1.7,3.2,4.5,3.2,8.5c0,2-0.1,5.1-0.4,9.2
					c-0.3,4.1-0.8,9.2-1.6,15.1c-0.8,5.9-1.8,12.1-3.1,18.5c0.3,0.2,0.4,0.3,0.7,0.4c2.3-3.1,4.4-6.6,6.5-10.3
					c2.1-3.8,3.7-7.3,5-10.5c-1.5-0.4-2.2-0.5-3.7-0.9c-0.3-1.9-0.5-4.2-0.5-6.9c0-0.6,0-0.9,0-1.5c1.1-1.4,2.6-2.6,4.5-3.6
					c1.9-1,4.3-1.6,7.1-1.6c2,0,3.8,0.4,5.3,1.1c1.5,0.8,2.6,1.8,3.4,3.2c0.8,1.3,1.2,2.9,1.2,4.6c0,1.3-0.2,2.6-0.6,3.7
					c-0.4,1.2-1,2.4-1.8,3.7c-2.1,3.3-5.7,7.9-10.8,13.9c1.7,2.4,3.4,4.5,5,6.3c0.6-0.3,1.2-0.7,1.8-1.2c0.6-0.5,1.3-1.3,2.2-2.2
					c0.4-0.4,0.6-0.6,0.9-1c2.1,1.6,3.2,2.4,5.3,4c-0.2,5.1-1.3,9-3.3,11.7c-2,2.7-4.6,4-7.9,4c-3.6,0-6.3-1.1-8.1-3.3
					c-1.8-2.2-3.1-5.2-3.9-9.2c-3.1,3.4-5.9,6.2-8.3,8.5c-2.4,2.3-4.1,3.8-4.7,4c-1.2,0.3-3.1-0.2-4.5-0.6c-1.4-0.4-2.9-1.1-3.2-1.8
					c-1.1-2.6-0.5-8.1-0.6-12.1c-0.1-4-0.2-8.7-0.2-14.2C653.7,149.9,654,140.7,654.5,135.7z"/>
				<path class="st2" d="M705.3,152.8c1.7-3.9,4.2-7,7.7-9.2c3.5-2.3,7.8-3.4,13-3.4c2.7,0,5.4,0.3,8.2,1c2.7,0.6,5,1.7,6.9,3.2
					c1.7,1.4,3,3.3,3.8,5.6c0.8,2.3,1.2,4.9,1.2,7.7c0,1.9-0.2,3.8-0.5,5.7c-0.3,0.6-1,1.3-2,2.3c-1,0.9-2.2,1.8-3.5,2.7
					c-1.3,0.9-2.8,1.8-3.9,2.1c-1,0.2-2.4,0.1-3.7,0.1c-2.3,0-4.5-0.1-6.9-0.3c-2.3-0.2-4.3-0.4-6.1-0.7c0.2,2.4,1,4.5,2.2,6.3
					c1.3,1.8,3.3,2.7,6,2.7c0.3,0,0.7,0,1.2,0c1.7-0.1,3.8-0.6,6.1-1.4c2.3-0.8,4.7-1.7,7-2.7c1.1,1.1,1.9,2.2,2.4,3.3
					c0.5,1.1,0.9,2.6,1.1,4.7c-0.9,1-2.3,2.3-4.3,3.8c-2,1.5-4.4,2.8-7.3,4c-2.9,1.2-5.9,1.8-9,1.8c-4.7,0-8.7-1.1-12-3.4
					c-3.3-2.3-5.9-5.4-7.6-9.3c-1.7-3.9-2.6-8.3-2.6-13.1C702.8,161.1,703.6,156.7,705.3,152.8z M730.4,156.2c-0.4-0.4-1.1-0.8-2-1
					c-0.9-0.2-1.9-0.4-3-0.4c-0.8,0-1.7,0.1-2.5,0.2c-0.8,0.1-1.4,0.3-1.5,0.5c-1,1.9-1.6,4.1-1.8,6.5c4.6-0.4,6.9-0.7,11.5-1.1
					C730.8,159,730.7,158.1,730.4,156.2z"/>
			</g>
		</g>
		<g>
			<g>
				<path class="st1" d="M359.7,231.9c-1.5,1.5-3.9,2.2-7,2.2h-5.2v11.3h-3.5v-26.9h8.7c3,0,5.4,0.7,6.9,2.2
					c1.6,1.5,2.4,3.4,2.4,5.7C362,228.6,361.2,230.5,359.7,231.9z M357,230c0.9-0.9,1.4-2.1,1.4-3.6c0-3.3-1.9-5-5.7-5h-5.2v9.9h5.2
					C354.6,231.3,356.1,230.8,357,230z"/>
				<path class="st1" d="M385.7,229c0.9-1.6,2.1-2.9,3.6-3.8c1.5-0.9,3.2-1.4,5.1-1.4c1.9,0,3.5,0.4,4.8,1.2c1.4,0.8,2.4,1.8,3.1,3
					v-3.9h3.6v21.2h-3.6v-3.9c-0.7,1.2-1.7,2.3-3.1,3.1c-1.4,0.8-3,1.2-4.8,1.2c-1.9,0-3.6-0.5-5.1-1.4c-1.5-0.9-2.7-2.2-3.6-3.9
					c-0.9-1.7-1.3-3.6-1.3-5.7C384.4,232.6,384.8,230.7,385.7,229z M401.3,230.6c-0.6-1.2-1.5-2.1-2.6-2.7c-1.1-0.6-2.3-0.9-3.6-0.9
					c-1.3,0-2.5,0.3-3.6,0.9c-1.1,0.6-1.9,1.5-2.6,2.7c-0.6,1.2-1,2.6-1,4.2c0,1.6,0.3,3,1,4.2c0.6,1.2,1.5,2.1,2.6,2.7
					c1.1,0.6,2.3,0.9,3.6,0.9c1.3,0,2.5-0.3,3.6-0.9c1.1-0.6,2-1.5,2.6-2.7c0.6-1.2,1-2.6,1-4.2C402.3,233.2,402,231.8,401.3,230.6z
					"/>
				<path class="st1" d="M434.3,244.9c-1.3-0.6-2.3-1.3-3.1-2.3c-0.7-1-1.2-2.1-1.2-3.4h3.6c0.1,1.1,0.6,1.9,1.5,2.6
					c0.9,0.7,2.1,1,3.5,1c1.3,0,2.4-0.3,3.2-0.9c0.8-0.6,1.2-1.3,1.2-2.2c0-0.9-0.4-1.6-1.2-2.1c-0.8-0.5-2.1-0.9-3.8-1.3
					c-1.6-0.4-2.9-0.8-3.8-1.3c-1-0.4-1.8-1.1-2.6-1.9c-0.7-0.8-1.1-1.9-1.1-3.3c0-1.1,0.3-2.1,1-3s1.6-1.6,2.7-2.1
					c1.2-0.5,2.5-0.8,4.1-0.8c2.3,0,4.2,0.6,5.7,1.8c1.4,1.2,2.2,2.8,2.3,4.9h-3.5c-0.1-1.1-0.5-2-1.3-2.7c-0.8-0.7-1.9-1-3.3-1
					c-1.3,0-2.3,0.3-3,0.8c-0.7,0.5-1.1,1.3-1.1,2.1c0,0.7,0.2,1.3,0.7,1.7c0.5,0.5,1,0.8,1.7,1.1c0.7,0.3,1.6,0.6,2.8,0.9
					c1.5,0.4,2.8,0.8,3.7,1.2c1,0.4,1.8,1,2.5,1.8c0.7,0.8,1,1.8,1.1,3.1c0,1.2-0.3,2.2-1,3.1c-0.6,0.9-1.6,1.7-2.7,2.2
					c-1.2,0.5-2.5,0.8-4,0.8C437,245.8,435.6,245.5,434.3,244.9z"/>
				<path class="st1" d="M474.9,227.1v12.5c0,1,0.2,1.8,0.7,2.2c0.4,0.4,1.2,0.6,2.3,0.6h2.6v3h-3.2c-2,0-3.4-0.5-4.4-1.4
					c-1-0.9-1.5-2.4-1.5-4.4v-12.5h-2.7v-2.9h2.7v-5.3h3.5v5.3h5.5v2.9H474.9z"/>
				<path class="st1" d="M523.3,236.1h-16.9c0.1,2.1,0.8,3.7,2.1,4.9c1.3,1.2,2.9,1.8,4.7,1.8c1.5,0,2.8-0.4,3.8-1.1
					c1-0.7,1.7-1.7,2.1-2.8h3.8c-0.6,2-1.7,3.7-3.4,5c-1.7,1.3-3.8,1.9-6.3,1.9c-2,0-3.8-0.5-5.4-1.4c-1.6-0.9-2.8-2.2-3.7-3.8
					c-0.9-1.7-1.4-3.6-1.4-5.8c0-2.2,0.4-4.1,1.3-5.8c0.9-1.7,2.1-2.9,3.7-3.8c1.6-0.9,3.4-1.3,5.5-1.3c2,0,3.8,0.4,5.3,1.3
					c1.5,0.9,2.7,2.1,3.6,3.6c0.8,1.5,1.3,3.3,1.3,5.2C523.4,234.7,523.4,235.4,523.3,236.1z M518.9,229.8c-0.6-1-1.4-1.7-2.4-2.2
					c-1-0.5-2.1-0.8-3.4-0.8c-1.8,0-3.3,0.6-4.5,1.7c-1.3,1.1-2,2.7-2.1,4.7h13.4C519.8,231.9,519.5,230.8,518.9,229.8z"/>
				<path class="st1" d="M550.9,216.8v28.6h-3.5v-28.6H550.9z"/>
				<path class="st1" d="M595.4,236.1h-16.9c0.1,2.1,0.8,3.7,2.1,4.9c1.3,1.2,2.9,1.8,4.7,1.8c1.5,0,2.8-0.4,3.8-1.1
					c1-0.7,1.7-1.7,2.1-2.8h3.8c-0.6,2-1.7,3.7-3.4,5c-1.7,1.3-3.8,1.9-6.3,1.9c-2,0-3.8-0.5-5.4-1.4c-1.6-0.9-2.8-2.2-3.7-3.8
					c-0.9-1.7-1.4-3.6-1.4-5.8c0-2.2,0.4-4.1,1.3-5.8c0.9-1.7,2.1-2.9,3.7-3.8c1.6-0.9,3.4-1.3,5.5-1.3c2,0,3.8,0.4,5.3,1.3
					c1.5,0.9,2.7,2.1,3.6,3.6c0.8,1.5,1.3,3.3,1.3,5.2C595.5,234.7,595.5,235.4,595.4,236.1z M591,229.8c-0.6-1-1.4-1.7-2.4-2.2
					c-1-0.5-2.1-0.8-3.4-0.8c-1.8,0-3.3,0.6-4.5,1.7c-1.3,1.1-2,2.7-2.1,4.7h13.4C591.9,231.9,591.6,230.8,591,229.8z"/>
				<path class="st1" d="M625.7,224.9c1.1-0.7,2.5-1,4.2-1v3.6H629c-3.9,0-5.9,2.1-5.9,6.4v11.5h-3.5v-21.2h3.5v3.4
					C623.7,226.5,624.5,225.5,625.7,224.9z"/>
				<path class="st1" d="M658.8,218.2l-8.2,4.4V220l8.2-4.8V218.2z M656.8,224.2v21.2h-3.5v-21.2H656.8z"/>
				<path class="st1" d="M682.1,229c0.9-1.6,2.1-2.9,3.6-3.8c1.5-0.9,3.2-1.4,5.1-1.4c1.9,0,3.5,0.4,4.8,1.2c1.4,0.8,2.4,1.8,3.1,3
					v-3.9h3.6v21.2h-3.6v-3.9c-0.7,1.2-1.7,2.3-3.1,3.1s-3,1.2-4.8,1.2c-1.9,0-3.6-0.5-5.1-1.4c-1.5-0.9-2.7-2.2-3.6-3.9
					c-0.9-1.7-1.3-3.6-1.3-5.7C680.8,232.6,681.2,230.7,682.1,229z M697.8,230.6c-0.6-1.2-1.5-2.1-2.6-2.7c-1.1-0.6-2.3-0.9-3.6-0.9
					c-1.3,0-2.5,0.3-3.6,0.9c-1.1,0.6-1.9,1.5-2.6,2.7c-0.6,1.2-1,2.6-1,4.2c0,1.6,0.3,3,1,4.2c0.6,1.2,1.5,2.1,2.6,2.7
					c1.1,0.6,2.3,0.9,3.6,0.9c1.3,0,2.5-0.3,3.6-0.9c1.1-0.6,2-1.5,2.6-2.7c0.6-1.2,1-2.6,1-4.2
					C698.7,233.2,698.4,231.8,697.8,230.6z"/>
			</g>
		</g>
	</g>
</g>
</svg>
